<svg version="1.1" xmlns="http://www.w3.org/2000/svg" xmlns:xlink="http://www.w3.org/1999/xlink" width="1883.216796875" height="1850"><defs/><g><g transform="translate(-222,-94) scale(1,1)"><rect fill="#C0C0C0" stroke="none" x="399" y="111" width="1575" height="1688" opacity="0.2"/></g><g transform="translate(-222,-94) scale(1,1)"><rect fill="#B6E3F1" stroke="none" x="392" y="104" width="1575" height="1688"/></g><g transform="translate(-222,-94) scale(1,1)"><path fill="none" stroke="#000000" d="M 392 104 L 1967 104 L 1967 1792 L 392 1792 L 392 104 Z Z" stroke-miterlimit="10"/></g><g transform="translate(-222,-94) scale(1,1)"><g><path fill="none" stroke="none"/><text fill="#000000" stroke="none" font-family="Arial" font-size="20px" font-style="normal" font-weight="bold" text-decoration="none" x="1022.5419921875" y="128.5">Website Cửa hàng bán nến thơm</text></g></g><g transform="translate(-222,-94) scale(1,1)"><path fill="#ffffff" stroke="none" d="M 1178.3968991477273 1857.6799999999998 C 1178.3968991477273 1852.8861679359998 1182.2827414726728 1849 1187.076171875 1849 C 1191.8696022773272 1849 1195.7554446022727 1852.8861679359998 1195.7554446022727 1857.6799999999998 C 1195.7554446022727 1862.473832064 1191.8696022773272 1866.36 1187.076171875 1866.36 C 1182.2827414726728 1866.36 1178.3968991477273 1862.473832064 1178.3968991477273 1857.6799999999998 Z"/></g><g transform="translate(-222,-94) scale(1,1)"><path fill="none" stroke="#000000" d="M 1178.3968991477273 1857.6799999999998 C 1178.3968991477273 1852.8861679359998 1182.2827414726728 1849 1187.076171875 1849 C 1191.8696022773272 1849 1195.7554446022727 1852.8861679359998 1195.7554446022727 1857.6799999999998 C 1195.7554446022727 1862.473832064 1191.8696022773272 1866.36 1187.076171875 1866.36 C 1182.2827414726728 1866.36 1178.3968991477273 1862.473832064 1178.3968991477273 1857.6799999999998 Z" stroke-miterlimit="10"/></g><g transform="translate(-222,-94) scale(1,1)"><path fill="none" stroke="#000000" d="M 1187.076171875 1866.36 L 1187.076171875 1883.64" stroke-miterlimit="10"/></g><g transform="translate(-222,-94) scale(1,1)"><path fill="none" stroke="#000000" d="M 1177.8863536931817 1872.84 L 1196.2659900568183 1872.84" stroke-miterlimit="10"/></g><g transform="translate(-222,-94) scale(1,1)"><path fill="none" stroke="#000000" d="M 1187.076171875 1883.64 L 1174.3125355113636 1901" stroke-miterlimit="10"/></g><g transform="translate(-222,-94) scale(1,1)"><path fill="none" stroke="#000000" d="M 1187.076171875 1883.64 L 1199.8398082386364 1901" stroke-miterlimit="10"/></g><g transform="translate(-222,-94) scale(1,1)"><g><path fill="none" stroke="none"/><text fill="#000000" stroke="none" font-family="Arial" font-size="20px" font-style="normal" font-weight="bold" text-decoration="none" x="1116.5" y="1926">Khách vãng lai</text></g></g><g transform="translate(-222,-94) scale(1,1)"><path fill="#ffffff" stroke="none" d="M 285.04728977272725 769.6800000000001 C 285.04728977272725 764.8861679360001 288.93313209767274 761 293.7265625 761 C 298.51999290232726 761 302.40583522727275 764.8861679360001 302.40583522727275 769.6800000000001 C 302.40583522727275 774.473832064 298.51999290232726 778.36 293.7265625 778.36 C 288.93313209767274 778.36 285.04728977272725 774.473832064 285.04728977272725 769.6800000000001 Z"/></g><g transform="translate(-222,-94) scale(1,1)"><path fill="none" stroke="#000000" d="M 285.04728977272725 769.6800000000001 C 285.04728977272725 764.8861679360001 288.93313209767274 761 293.7265625 761 C 298.51999290232726 761 302.40583522727275 764.8861679360001 302.40583522727275 769.6800000000001 C 302.40583522727275 774.473832064 298.51999290232726 778.36 293.7265625 778.36 C 288.93313209767274 778.36 285.04728977272725 774.473832064 285.04728977272725 769.6800000000001 Z" stroke-miterlimit="10"/></g><g transform="translate(-222,-94) scale(1,1)"><path fill="none" stroke="#000000" d="M 293.7265625 778.36 L 293.7265625 795.64" stroke-miterlimit="10"/></g><g transform="translate(-222,-94) scale(1,1)"><path fill="none" stroke="#000000" d="M 284.53674431818183 784.84 L 302.91638068181817 784.84" stroke-miterlimit="10"/></g><g transform="translate(-222,-94) scale(1,1)"><path fill="none" stroke="#000000" d="M 293.7265625 795.64 L 280.96292613636365 813" stroke-miterlimit="10"/></g><g transform="translate(-222,-94) scale(1,1)"><path fill="none" stroke="#000000" d="M 293.7265625 795.64 L 306.49019886363635 813" stroke-miterlimit="10"/></g><g transform="translate(-222,-94) scale(1,1)"><g><path fill="none" stroke="none"/><text fill="#000000" stroke="none" font-family="Arial" font-size="20px" font-style="normal" font-weight="bold" text-decoration="none" x="236.5" y="838">Khách hàng</text></g></g><g transform="translate(-222,-94) scale(1,1)"><path fill="#ffffff" stroke="none" d="M 2050.9291257102273 745.6800000000001 C 2050.9291257102273 740.8861679360001 2054.8149680351726 737 2059.6083984375 737 C 2064.4018288398274 737 2068.2876711647727 740.8861679360001 2068.2876711647727 745.6800000000001 C 2068.2876711647727 750.473832064 2064.4018288398274 754.36 2059.6083984375 754.36 C 2054.8149680351726 754.36 2050.9291257102273 750.473832064 2050.9291257102273 745.6800000000001 Z"/></g><g transform="translate(-222,-94) scale(1,1)"><path fill="none" stroke="#000000" d="M 2050.9291257102273 745.6800000000001 C 2050.9291257102273 740.8861679360001 2054.8149680351726 737 2059.6083984375 737 C 2064.4018288398274 737 2068.2876711647727 740.8861679360001 2068.2876711647727 745.6800000000001 C 2068.2876711647727 750.473832064 2064.4018288398274 754.36 2059.6083984375 754.36 C 2054.8149680351726 754.36 2050.9291257102273 750.473832064 2050.9291257102273 745.6800000000001 Z" stroke-miterlimit="10"/></g><g transform="translate(-222,-94) scale(1,1)"><path fill="none" stroke="#000000" d="M 2059.6083984375 754.36 L 2059.6083984375 771.64" stroke-miterlimit="10"/></g><g transform="translate(-222,-94) scale(1,1)"><path fill="none" stroke="#000000" d="M 2050.4185802556817 760.84 L 2068.7982166193183 760.84" stroke-miterlimit="10"/></g><g transform="translate(-222,-94) scale(1,1)"><path fill="none" stroke="#000000" d="M 2059.6083984375 771.64 L 2046.8447620738634 789" stroke-miterlimit="10"/></g><g transform="translate(-222,-94) scale(1,1)"><path fill="none" stroke="#000000" d="M 2059.6083984375 771.64 L 2072.3720348011366 789" stroke-miterlimit="10"/></g><g transform="translate(-222,-94) scale(1,1)"><g><path fill="none" stroke="none"/><text fill="#000000" stroke="none" font-family="Arial" font-size="20px" font-style="normal" font-weight="bold" text-decoration="none" x="2028.5" y="814">Admin</text></g></g><g transform="translate(-222,-94) scale(1,1)"><path fill="#C0C0C0" stroke="none" d="M 511 1549 C 511 1536.8497344 590.2455904 1527 688 1527 C 785.7544096 1527 865 1536.8497344 865 1549 C 865 1561.1502656 785.7544096 1571 688 1571 C 590.2455904 1571 511 1561.1502656 511 1549 Z" opacity="0.2"/></g><g transform="translate(-222,-94) scale(1,1)"><path fill="#ffffff" stroke="none" d="M 504 1542 C 504 1529.8497344 583.2455904 1520 681 1520 C 778.7544096 1520 858 1529.8497344 858 1542 C 858 1554.1502656 778.7544096 1564 681 1564 C 583.2455904 1564 504 1554.1502656 504 1542 Z"/></g><g transform="translate(-222,-94) scale(1,1)"><path fill="none" stroke="#000000" d="M 504 1542 C 504 1529.8497344 583.2455904 1520 681 1520 C 778.7544096 1520 858 1529.8497344 858 1542 C 858 1554.1502656 778.7544096 1564 681 1564 C 583.2455904 1564 504 1554.1502656 504 1542 Z" stroke-miterlimit="10"/></g><g transform="translate(-222,-94) scale(1,1)"><g><path fill="none" stroke="none"/><text fill="#000000" stroke="none" font-family="Arial" font-size="20px" font-style="normal" font-weight="bold" text-decoration="none" x="560.4140625" y="1551">Xem danh mục sản phẩm</text></g></g><g transform="translate(-222,-94) scale(1,1)"><path fill="#C0C0C0" stroke="none" d="M 631 1389 C 631 1376.8497344 700.6197136 1367 786.5 1367 C 872.3802864 1367 942 1376.8497344 942 1389 C 942 1401.1502656 872.3802864 1411 786.5 1411 C 700.6197136 1411 631 1401.1502656 631 1389 Z" opacity="0.2"/></g><g transform="translate(-222,-94) scale(1,1)"><path fill="#ffffff" stroke="none" d="M 624 1382 C 624 1369.8497344 693.6197136 1360 779.5 1360 C 865.3802864 1360 935 1369.8497344 935 1382 C 935 1394.1502656 865.3802864 1404 779.5 1404 C 693.6197136 1404 624 1394.1502656 624 1382 Z"/></g><g transform="translate(-222,-94) scale(1,1)"><path fill="none" stroke="#000000" d="M 624 1382 C 624 1369.8497344 693.6197136 1360 779.5 1360 C 865.3802864 1360 935 1369.8497344 935 1382 C 935 1394.1502656 865.3802864 1404 779.5 1404 C 693.6197136 1404 624 1394.1502656 624 1382 Z" stroke-miterlimit="10"/></g><g transform="translate(-222,-94) scale(1,1)"><g><path fill="none" stroke="none"/><text fill="#000000" stroke="none" font-family="Arial" font-size="20px" font-style="normal" font-weight="bold" text-decoration="none" x="673.9140625" y="1391">Xem chi tiết sản phẩm</text></g></g><g transform="translate(-222,-94) scale(1,1)"><path fill="#C0C0C0" stroke="none" d="M 887 1325 C 887 1312.8497344 948.56084 1303 1024.5 1303 C 1100.43916 1303 1162 1312.8497344 1162 1325 C 1162 1337.1502656 1100.43916 1347 1024.5 1347 C 948.56084 1347 887 1337.1502656 887 1325 Z" opacity="0.2"/></g><g transform="translate(-222,-94) scale(1,1)"><path fill="#ffffff" stroke="none" d="M 880 1318 C 880 1305.8497344 941.56084 1296 1017.5 1296 C 1093.43916 1296 1155 1305.8497344 1155 1318 C 1155 1330.1502656 1093.43916 1340 1017.5 1340 C 941.56084 1340 880 1330.1502656 880 1318 Z"/></g><g transform="translate(-222,-94) scale(1,1)"><path fill="none" stroke="#000000" d="M 880 1318 C 880 1305.8497344 941.56084 1296 1017.5 1296 C 1093.43916 1296 1155 1305.8497344 1155 1318 C 1155 1330.1502656 1093.43916 1340 1017.5 1340 C 941.56084 1340 880 1330.1502656 880 1318 Z" stroke-miterlimit="10"/></g><g transform="translate(-222,-94) scale(1,1)"><g><path fill="none" stroke="none"/><text fill="#000000" stroke="none" font-family="Arial" font-size="20px" font-style="normal" font-weight="bold" text-decoration="none" x="924.6923828125" y="1327">Tìm kiếm sản phẩm</text></g></g><g transform="translate(-222,-94) scale(1,1)"><path fill="#C0C0C0" stroke="none" d="M 1199 1301 C 1199 1288.8497344 1244.4430928 1279 1300.5 1279 C 1356.5569072 1279 1402 1288.8497344 1402 1301 C 1402 1313.1502656 1356.5569072 1323 1300.5 1323 C 1244.4430928 1323 1199 1313.1502656 1199 1301 Z" opacity="0.2"/></g><g transform="translate(-222,-94) scale(1,1)"><path fill="#ffffff" stroke="none" d="M 1192 1294 C 1192 1281.8497344 1237.4430928 1272 1293.5 1272 C 1349.5569072 1272 1395 1281.8497344 1395 1294 C 1395 1306.1502656 1349.5569072 1316 1293.5 1316 C 1237.4430928 1316 1192 1306.1502656 1192 1294 Z"/></g><g transform="translate(-222,-94) scale(1,1)"><path fill="none" stroke="#000000" d="M 1192 1294 C 1192 1281.8497344 1237.4430928 1272 1293.5 1272 C 1349.5569072 1272 1395 1281.8497344 1395 1294 C 1395 1306.1502656 1349.5569072 1316 1293.5 1316 C 1237.4430928 1316 1192 1306.1502656 1192 1294 Z" stroke-miterlimit="10"/></g><g transform="translate(-222,-94) scale(1,1)"><g><path fill="none" stroke="none"/><text fill="#000000" stroke="none" font-family="Arial" font-size="20px" font-style="normal" font-weight="bold" text-decoration="none" x="1226.263671875" y="1303">Lọc sản phẩm</text></g></g><g transform="translate(-222,-94) scale(1,1)"><path fill="#C0C0C0" stroke="none" d="M 1455 1325 C 1455 1312.8497344 1512.083688 1303 1582.5 1303 C 1652.916312 1303 1710 1312.8497344 1710 1325 C 1710 1337.1502656 1652.916312 1347 1582.5 1347 C 1512.083688 1347 1455 1337.1502656 1455 1325 Z" opacity="0.2"/></g><g transform="translate(-222,-94) scale(1,1)"><path fill="#ffffff" stroke="none" d="M 1448 1318 C 1448 1305.8497344 1505.083688 1296 1575.5 1296 C 1645.916312 1296 1703 1305.8497344 1703 1318 C 1703 1330.1502656 1645.916312 1340 1575.5 1340 C 1505.083688 1340 1448 1330.1502656 1448 1318 Z"/></g><g transform="translate(-222,-94) scale(1,1)"><path fill="none" stroke="#000000" d="M 1448 1318 C 1448 1305.8497344 1505.083688 1296 1575.5 1296 C 1645.916312 1296 1703 1305.8497344 1703 1318 C 1703 1330.1502656 1645.916312 1340 1575.5 1340 C 1505.083688 1340 1448 1330.1502656 1448 1318 Z" stroke-miterlimit="10"/></g><g transform="translate(-222,-94) scale(1,1)"><g><path fill="none" stroke="none"/><text fill="#000000" stroke="none" font-family="Arial" font-size="20px" font-style="normal" font-weight="bold" text-decoration="none" x="1489.923828125" y="1326">Đăng ký tài khoản</text></g></g><g transform="translate(-222,-94) scale(1,1)"><path fill="#C0C0C0" stroke="none" d="M 1111 173 C 1111 160.8497344 1146.5933584 151 1190.5 151 C 1234.4066416 151 1270 160.8497344 1270 173 C 1270 185.1502656 1234.4066416 195 1190.5 195 C 1146.5933584 195 1111 185.1502656 1111 173 Z" opacity="0.2"/></g><g transform="translate(-222,-94) scale(1,1)"><path fill="#ffffff" stroke="none" d="M 1104 166 C 1104 153.8497344 1139.5933584 144 1183.5 144 C 1227.4066416 144 1263 153.8497344 1263 166 C 1263 178.1502656 1227.4066416 188 1183.5 188 C 1139.5933584 188 1104 178.1502656 1104 166 Z"/></g><g transform="translate(-222,-94) scale(1,1)"><path fill="none" stroke="#000000" d="M 1104 166 C 1104 153.8497344 1139.5933584 144 1183.5 144 C 1227.4066416 144 1263 153.8497344 1263 166 C 1263 178.1502656 1227.4066416 188 1183.5 188 C 1139.5933584 188 1104 178.1502656 1104 166 Z" stroke-miterlimit="10"/></g><g transform="translate(-222,-94) scale(1,1)"><g><path fill="none" stroke="none"/><text fill="#000000" stroke="none" font-family="Arial" font-size="20px" font-style="normal" font-weight="bold" text-decoration="none" x="1131.8349609375" y="174">Đăng nhập</text></g></g><g transform="translate(-222,-94) scale(1,1)"><path fill="#C0C0C0" stroke="none" d="M 543 277 C 543 264.8497344 602.5461216 255 676 255 C 749.4538784 255 809 264.8497344 809 277 C 809 289.1502656 749.4538784 299 676 299 C 602.5461216 299 543 289.1502656 543 277 Z" opacity="0.2"/></g><g transform="translate(-222,-94) scale(1,1)"><path fill="#ffffff" stroke="none" d="M 536 270 C 536 257.8497344 595.5461216 248 669 248 C 742.4538784 248 802 257.8497344 802 270 C 802 282.1502656 742.4538784 292 669 292 C 595.5461216 292 536 282.1502656 536 270 Z"/></g><g transform="translate(-222,-94) scale(1,1)"><path fill="none" stroke="#000000" d="M 536 270 C 536 257.8497344 595.5461216 248 669 248 C 742.4538784 248 802 257.8497344 802 270 C 802 282.1502656 742.4538784 292 669 292 C 595.5461216 292 536 282.1502656 536 270 Z" stroke-miterlimit="10"/></g><g transform="translate(-222,-94) scale(1,1)"><g><path fill="none" stroke="none"/><text fill="#000000" stroke="none" font-family="Arial" font-size="20px" font-style="normal" font-weight="bold" text-decoration="none" x="579.546875" y="278">Cập nhật tài khoản</text></g></g><g transform="translate(-222,-94) scale(1,1)"><path fill="#C0C0C0" stroke="none" d="M 679 381 C 679 368.8497344 721.532944 359 774 359 C 826.467056 359 869 368.8497344 869 381 C 869 393.1502656 826.467056 403 774 403 C 721.532944 403 679 393.1502656 679 381 Z" opacity="0.2"/></g><g transform="translate(-222,-94) scale(1,1)"><path fill="#ffffff" stroke="none" d="M 672 374 C 672 361.8497344 714.532944 352 767 352 C 819.467056 352 862 361.8497344 862 374 C 862 386.1502656 819.467056 396 767 396 C 714.532944 396 672 386.1502656 672 374 Z"/></g><g transform="translate(-222,-94) scale(1,1)"><path fill="none" stroke="#000000" d="M 672 374 C 672 361.8497344 714.532944 352 767 352 C 819.467056 352 862 361.8497344 862 374 C 862 386.1502656 819.467056 396 767 396 C 714.532944 396 672 386.1502656 672 374 Z" stroke-miterlimit="10"/></g><g transform="translate(-222,-94) scale(1,1)"><g><path fill="none" stroke="none"/><text fill="#000000" stroke="none" font-family="Arial" font-size="20px" font-style="normal" font-weight="bold" text-decoration="none" x="704.2119140625" y="383">Đổi mật khẩu</text></g></g><g transform="translate(-222,-94) scale(1,1)"><path fill="#C0C0C0" stroke="none" d="M 823 437 C 823 424.8497344 880.9791184000001 415 952.5 415 C 1024.0208816 415 1082 424.8497344 1082 437 C 1082 449.1502656 1024.0208816 459 952.5 459 C 880.9791184000001 459 823 449.1502656 823 437 Z" opacity="0.2"/></g><g transform="translate(-222,-94) scale(1,1)"><path fill="#ffffff" stroke="none" d="M 816 430 C 816 417.8497344 873.9791184000001 408 945.5 408 C 1017.0208815999999 408 1075 417.8497344 1075 430 C 1075 442.1502656 1017.0208815999999 452 945.5 452 C 873.9791184000001 452 816 442.1502656 816 430 Z"/></g><g transform="translate(-222,-94) scale(1,1)"><path fill="none" stroke="#000000" d="M 816 430 C 816 417.8497344 873.9791184000001 408 945.5 408 C 1017.0208815999999 408 1075 417.8497344 1075 430 C 1075 442.1502656 1017.0208815999999 452 945.5 452 C 873.9791184000001 452 816 442.1502656 816 430 Z" stroke-miterlimit="10"/></g><g transform="translate(-222,-94) scale(1,1)"><g><path fill="none" stroke="none"/><text fill="#000000" stroke="none" font-family="Arial" font-size="20px" font-style="normal" font-weight="bold" text-decoration="none" x="858.283203125" y="438">Cập nhật giỏ hàng</text></g></g><g transform="translate(-222,-94) scale(1,1)"><path fill="#C0C0C0" stroke="none" d="M 463 213 C 463 200.8497344 492.5492032 191 529 191 C 565.4507968 191 595 200.8497344 595 213 C 595 225.1502656 565.4507968 235 529 235 C 492.5492032 235 463 225.1502656 463 213 Z" opacity="0.2"/></g><g transform="translate(-222,-94) scale(1,1)"><path fill="#ffffff" stroke="none" d="M 456 206 C 456 193.8497344 485.5492032 184 522 184 C 558.4507968 184 588 193.8497344 588 206 C 588 218.1502656 558.4507968 228 522 228 C 485.5492032 228 456 218.1502656 456 206 Z"/></g><g transform="translate(-222,-94) scale(1,1)"><path fill="none" stroke="#000000" d="M 456 206 C 456 193.8497344 485.5492032 184 522 184 C 558.4507968 184 588 193.8497344 588 206 C 588 218.1502656 558.4507968 228 522 228 C 485.5492032 228 456 218.1502656 456 206 Z" stroke-miterlimit="10"/></g><g transform="translate(-222,-94) scale(1,1)"><g><path fill="none" stroke="none"/><text fill="#000000" stroke="none" font-family="Arial" font-size="20px" font-style="normal" font-weight="bold" text-decoration="none" x="479.7734375" y="214">Đánh giá</text></g></g><g transform="translate(-222,-94) scale(1,1)"><path fill="#C0C0C0" stroke="none" d="M 831 669 C 831 656.8497344 860.9969184 647 898 647 C 935.0030816 647 965 656.8497344 965 669 C 965 681.1502656 935.0030816 691 898 691 C 860.9969184 691 831 681.1502656 831 669 Z" opacity="0.2"/></g><g transform="translate(-222,-94) scale(1,1)"><path fill="#ffffff" stroke="none" d="M 824 662 C 824 649.8497344 853.9969184 640 891 640 C 928.0030816 640 958 649.8497344 958 662 C 958 674.1502656 928.0030816 684 891 684 C 853.9969184 684 824 674.1502656 824 662 Z"/></g><g transform="translate(-222,-94) scale(1,1)"><path fill="none" stroke="#000000" d="M 824 662 C 824 649.8497344 853.9969184 640 891 640 C 928.0030816 640 958 649.8497344 958 662 C 958 674.1502656 928.0030816 684 891 684 C 853.9969184 684 824 674.1502656 824 662 Z" stroke-miterlimit="10"/></g><g transform="translate(-222,-94) scale(1,1)"><g><path fill="none" stroke="none"/><text fill="#000000" stroke="none" font-family="Arial" font-size="20px" font-style="normal" font-weight="bold" text-decoration="none" x="848.2216796875" y="670">Đặt hàng</text></g></g><g transform="translate(-222,-94) scale(1,1)"><path fill="#C0C0C0" stroke="none" d="M 975 917 C 975 904.8497344 1034.9938368 895 1109 895 C 1183.0061632 895 1243 904.8497344 1243 917 C 1243 929.1502656 1183.0061632 939 1109 939 C 1034.9938368 939 975 929.1502656 975 917 Z" opacity="0.2"/></g><g transform="translate(-222,-94) scale(1,1)"><path fill="#ffffff" stroke="none" d="M 968 910 C 968 897.8497344 1027.9938368 888 1102 888 C 1176.0061632 888 1236 897.8497344 1236 910 C 1236 922.1502656 1176.0061632 932 1102 932 C 1027.9938368 932 968 922.1502656 968 910 Z"/></g><g transform="translate(-222,-94) scale(1,1)"><path fill="none" stroke="#000000" d="M 968 910 C 968 897.8497344 1027.9938368 888 1102 888 C 1176.0061632 888 1236 897.8497344 1236 910 C 1236 922.1502656 1176.0061632 932 1102 932 C 1027.9938368 932 968 922.1502656 968 910 Z" stroke-miterlimit="10"/></g><g transform="translate(-222,-94) scale(1,1)"><g><path fill="none" stroke="none"/><text fill="#000000" stroke="none" font-family="Arial" font-size="20px" font-style="normal" font-weight="bold" text-decoration="none" x="1011.5703125" y="918">Theo dõi đơn hàng</text></g></g><g transform="translate(-222,-94) scale(1,1)"><path fill="#C0C0C0" stroke="none" d="M 1159 821 C 1159 808.8497344 1204.6669504 799 1261 799 C 1317.3330496 799 1363 808.8497344 1363 821 C 1363 833.1502656 1317.3330496 843 1261 843 C 1204.6669504 843 1159 833.1502656 1159 821 Z" opacity="0.2"/></g><g transform="translate(-222,-94) scale(1,1)"><path fill="#ffffff" stroke="none" d="M 1152 814 C 1152 801.8497344 1197.6669504 792 1254 792 C 1310.3330496 792 1356 801.8497344 1356 814 C 1356 826.1502656 1310.3330496 836 1254 836 C 1197.6669504 836 1152 826.1502656 1152 814 Z"/></g><g transform="translate(-222,-94) scale(1,1)"><path fill="none" stroke="#000000" d="M 1152 814 C 1152 801.8497344 1197.6669504 792 1254 792 C 1310.3330496 792 1356 801.8497344 1356 814 C 1356 826.1502656 1310.3330496 836 1254 836 C 1197.6669504 836 1152 826.1502656 1152 814 Z" stroke-miterlimit="10"/></g><g transform="translate(-222,-94) scale(1,1)"><g><path fill="none" stroke="none"/><text fill="#000000" stroke="none" font-family="Arial" font-size="20px" font-style="normal" font-weight="bold" text-decoration="none" x="1186.3388671875" y="822">Huỷ đơn hàng</text></g></g><g transform="translate(-222,-94) scale(1,1)"><path fill="#C0C0C0" stroke="none" d="M 1639 397 C 1639 384.8497344 1702.5755584 375 1781 375 C 1859.4244416 375 1923 384.8497344 1923 397 C 1923 409.1502656 1859.4244416 419 1781 419 C 1702.5755584 419 1639 409.1502656 1639 397 Z" opacity="0.2"/></g><g transform="translate(-222,-94) scale(1,1)"><path fill="#ffffff" stroke="none" d="M 1632 390 C 1632 377.8497344 1695.5755584 368 1774 368 C 1852.4244416 368 1916 377.8497344 1916 390 C 1916 402.1502656 1852.4244416 412 1774 412 C 1695.5755584 412 1632 402.1502656 1632 390 Z"/></g><g transform="translate(-222,-94) scale(1,1)"><path fill="none" stroke="#000000" d="M 1632 390 C 1632 377.8497344 1695.5755584 368 1774 368 C 1852.4244416 368 1916 377.8497344 1916 390 C 1916 402.1502656 1852.4244416 412 1774 412 C 1695.5755584 412 1632 402.1502656 1632 390 Z" stroke-miterlimit="10"/></g><g transform="translate(-222,-94) scale(1,1)"><g><path fill="none" stroke="none"/><text fill="#000000" stroke="none" font-family="Arial" font-size="20px" font-style="normal" font-weight="bold" text-decoration="none" x="1677.9892578125" y="398">Quản lý người dùng</text></g></g><g transform="translate(-222,-94) scale(1,1)"><path fill="#C0C0C0" stroke="none" d="M 1543 941 C 1543 928.8497344 1600.3075456 919 1671 919 C 1741.6924544 919 1799 928.8497344 1799 941 C 1799 953.1502656 1741.6924544 963 1671 963 C 1600.3075456 963 1543 953.1502656 1543 941 Z" opacity="0.2"/></g><g transform="translate(-222,-94) scale(1,1)"><path fill="#ffffff" stroke="none" d="M 1536 934 C 1536 921.8497344 1593.3075456 912 1664 912 C 1734.6924544 912 1792 921.8497344 1792 934 C 1792 946.1502656 1734.6924544 956 1664 956 C 1593.3075456 956 1536 946.1502656 1536 934 Z"/></g><g transform="translate(-222,-94) scale(1,1)"><path fill="none" stroke="#000000" d="M 1536 934 C 1536 921.8497344 1593.3075456 912 1664 912 C 1734.6924544 912 1792 921.8497344 1792 934 C 1792 946.1502656 1734.6924544 956 1664 956 C 1593.3075456 956 1536 946.1502656 1536 934 Z" stroke-miterlimit="10"/></g><g transform="translate(-222,-94) scale(1,1)"><g><path fill="none" stroke="none"/><text fill="#000000" stroke="none" font-family="Arial" font-size="20px" font-style="normal" font-weight="bold" text-decoration="none" x="1577.8671875" y="943">Quản lý sản phẩm</text></g></g><g transform="translate(-222,-94) scale(1,1)"><path fill="#C0C0C0" stroke="none" d="M 1527 629 C 1527 616.8497344 1584.7552608 607 1656 607 C 1727.2447392 607 1785 616.8497344 1785 629 C 1785 641.1502656 1727.2447392 651 1656 651 C 1584.7552608 651 1527 641.1502656 1527 629 Z" opacity="0.2"/></g><g transform="translate(-222,-94) scale(1,1)"><path fill="#ffffff" stroke="none" d="M 1520 622 C 1520 609.8497344 1577.7552608 600 1649 600 C 1720.2447392 600 1778 609.8497344 1778 622 C 1778 634.1502656 1720.2447392 644 1649 644 C 1577.7552608 644 1520 634.1502656 1520 622 Z"/></g><g transform="translate(-222,-94) scale(1,1)"><path fill="none" stroke="#000000" d="M 1520 622 C 1520 609.8497344 1577.7552608 600 1649 600 C 1720.2447392 600 1778 609.8497344 1778 622 C 1778 634.1502656 1720.2447392 644 1649 644 C 1577.7552608 644 1520 634.1502656 1520 622 Z" stroke-miterlimit="10"/></g><g transform="translate(-222,-94) scale(1,1)"><g><path fill="none" stroke="none"/><text fill="#000000" stroke="none" font-family="Arial" font-size="20px" font-style="normal" font-weight="bold" text-decoration="none" x="1562.3203125" y="630">Quản lý danh mục</text></g></g><g transform="translate(-222,-94) scale(1,1)"><path fill="#C0C0C0" stroke="none" d="M 1559 821 C 1559 808.8497344 1615.8598304 799 1686 799 C 1756.1401696 799 1813 808.8497344 1813 821 C 1813 833.1502656 1756.1401696 843 1686 843 C 1615.8598304 843 1559 833.1502656 1559 821 Z" opacity="0.2"/></g><g transform="translate(-222,-94) scale(1,1)"><path fill="#ffffff" stroke="none" d="M 1552 814 C 1552 801.8497344 1608.8598304 792 1679 792 C 1749.1401696 792 1806 801.8497344 1806 814 C 1806 826.1502656 1749.1401696 836 1679 836 C 1608.8598304 836 1552 826.1502656 1552 814 Z"/></g><g transform="translate(-222,-94) scale(1,1)"><path fill="none" stroke="#000000" d="M 1552 814 C 1552 801.8497344 1608.8598304 792 1679 792 C 1749.1401696 792 1806 801.8497344 1806 814 C 1806 826.1502656 1749.1401696 836 1679 836 C 1608.8598304 836 1552 826.1502656 1552 814 Z" stroke-miterlimit="10"/></g><g transform="translate(-222,-94) scale(1,1)"><g><path fill="none" stroke="none"/><text fill="#000000" stroke="none" font-family="Arial" font-size="20px" font-style="normal" font-weight="bold" text-decoration="none" x="1593.5556640625" y="822">Quản lý đơn hàng</text></g></g><g transform="translate(-222,-94) scale(1,1)"><path fill="#C0C0C0" stroke="none" d="M 1519 517 C 1519 504.8497344 1576.3075456 495 1647 495 C 1717.6924544 495 1775 504.8497344 1775 517 C 1775 529.1502656 1717.6924544 539 1647 539 C 1576.3075456 539 1519 529.1502656 1519 517 Z" opacity="0.2"/></g><g transform="translate(-222,-94) scale(1,1)"><path fill="#ffffff" stroke="none" d="M 1512 510 C 1512 497.8497344 1569.3075456 488 1640 488 C 1710.6924544 488 1768 497.8497344 1768 510 C 1768 522.1502656 1710.6924544 532 1640 532 C 1569.3075456 532 1512 522.1502656 1512 510 Z"/></g><g transform="translate(-222,-94) scale(1,1)"><path fill="none" stroke="#000000" d="M 1512 510 C 1512 497.8497344 1569.3075456 488 1640 488 C 1710.6924544 488 1768 497.8497344 1768 510 C 1768 522.1502656 1710.6924544 532 1640 532 C 1569.3075456 532 1512 522.1502656 1512 510 Z" stroke-miterlimit="10"/></g><g transform="translate(-222,-94) scale(1,1)"><g><path fill="none" stroke="none"/><text fill="#000000" stroke="none" font-family="Arial" font-size="20px" font-style="normal" font-weight="bold" text-decoration="none" x="1553.88671875" y="518.5">Phản hồi đánh giá</text></g></g><g transform="translate(-222,-94) scale(1,1)"><path fill="#C0C0C0" stroke="none" d="M 1543 1093 C 1543 1080.8497344 1613.0674288 1071 1699.5 1071 C 1785.9325712 1071 1856 1080.8497344 1856 1093 C 1856 1105.1502656 1785.9325712 1115 1699.5 1115 C 1613.0674288 1115 1543 1105.1502656 1543 1093 Z" opacity="0.2"/></g><g transform="translate(-222,-94) scale(1,1)"><path fill="#ffffff" stroke="none" d="M 1536 1086 C 1536 1073.8497344 1606.0674288 1064 1692.5 1064 C 1778.9325712 1064 1849 1073.8497344 1849 1086 C 1849 1098.1502656 1778.9325712 1108 1692.5 1108 C 1606.0674288 1108 1536 1098.1502656 1536 1086 Z"/></g><g transform="translate(-222,-94) scale(1,1)"><path fill="none" stroke="#000000" d="M 1536 1086 C 1536 1073.8497344 1606.0674288 1064 1692.5 1064 C 1778.9325712 1064 1849 1073.8497344 1849 1086 C 1849 1098.1502656 1778.9325712 1108 1692.5 1108 C 1606.0674288 1108 1536 1098.1502656 1536 1086 Z" stroke-miterlimit="10"/></g><g transform="translate(-222,-94) scale(1,1)"><g><path fill="none" stroke="none"/><text fill="#000000" stroke="none" font-family="Arial" font-size="20px" font-style="normal" font-weight="bold" text-decoration="none" x="1586.3671875" y="1094.5">Xem báo cáo thống kê</text></g></g><g transform="translate(-222,-94) scale(1,1)"><path fill="none" stroke="#000000" d="M 1103 164 L 328 144 L 295 759" stroke-miterlimit="10"/></g><g transform="translate(-222,-94) scale(1,1)"><path fill="none" stroke="#000000" d="M 513 229 L 310 759" stroke-miterlimit="10"/></g><g transform="translate(-222,-94) scale(1,1)"><path fill="none" stroke="#000000" d="M 653 293 L 324 759" stroke-miterlimit="10"/></g><g transform="translate(-222,-94) scale(1,1)"><path fill="none" stroke="#000000" d="M 742 397 L 342 759" stroke-miterlimit="10"/></g><g transform="translate(-222,-94) scale(1,1)"><path fill="none" stroke="#000000" d="M 823 678 L 356 788" stroke-miterlimit="10"/></g><g transform="translate(-222,-94) scale(1,1)"><path fill="none" stroke="#000000" d="M 967 892 L 356 811" stroke-miterlimit="10"/></g><g transform="translate(-222,-94) scale(1,1)"><path fill="none" stroke="#000000" d="M 1791 413 L 2027 735" stroke-miterlimit="10"/></g><g transform="translate(-222,-94) scale(1,1)"><path fill="none" stroke="#000000" d="M 1723 911 L 2023 793" stroke-miterlimit="10"/></g><g transform="translate(-222,-94) scale(1,1)"><path fill="none" stroke="#000000" d="M 1709 645 L 2023 765" stroke-miterlimit="10"/></g><g transform="translate(-222,-94) scale(1,1)"><path fill="none" stroke="#000000" d="M 1807 802 L 2023 782" stroke-miterlimit="10"/></g><g transform="translate(-222,-94) scale(1,1)"><path fill="none" stroke="#000000" d="M 1676 533 L 2023 756" stroke-miterlimit="10"/></g><g transform="translate(-222,-94) scale(1,1)"><path fill="none" stroke="#000000" d="M 1719 1063 L 2023 809" stroke-miterlimit="10"/></g><g transform="translate(-222,-94) scale(1,1)"><path fill="none" stroke="#000000" d="M 1559 1341 L 1217 1847" stroke-miterlimit="10"/></g><g transform="translate(-222,-94) scale(1,1)"><path fill="none" stroke="#000000" d="M 714 1565 L 1123 1847" stroke-miterlimit="10"/></g><g transform="translate(-222,-94) scale(1,1)"><path fill="none" stroke="#000000" d="M 797 1405 L 1152 1847" stroke-miterlimit="10"/></g><g transform="translate(-222,-94) scale(1,1)"><path fill="none" stroke="#000000" d="M 1024 1341 L 1174 1847" stroke-miterlimit="10"/></g><g transform="translate(-222,-94) scale(1,1)"><path fill="none" stroke="#000000" d="M 1289 1317 L 1195 1847" stroke-miterlimit="10"/></g><g transform="translate(-222,-94) scale(1,1)"><path fill="none" stroke="#000000" d="M 1264 164 L 2056 144 L 2059 735" stroke-miterlimit="10"/></g><g transform="translate(-222,-94) scale(1,1)"><path fill="none" stroke="#000000" d="M 691 293 L 745 351" stroke-miterlimit="10" stroke-dasharray="3"/></g><g transform="translate(-222,-94) scale(1,1)"><path fill="none" stroke="#000000" d="M 734.9940443779101 346.43044290015257 L 745 351 L 741.1558857396898 340.6935561150473" stroke-miterlimit="10"/></g><g transform="translate(-222,-94) scale(1,1)"><g><path fill="none" stroke="none"/><text fill="#000000" stroke="none" font-family="Arial" font-size="15px" font-style="normal" font-weight="normal" text-decoration="none" x="722.5" y="328.5">«extend»</text></g></g><g transform="translate(-222,-94) scale(1,1)"><path fill="none" stroke="#000000" d="M 356 767 L 905 453" stroke-miterlimit="10"/></g><g transform="translate(-222,-94) scale(1,1)"><path fill="#C0C0C0" stroke="none" d="M 1015 597 C 1015 584.8497344 1082.8288528 575 1166.5 575 C 1250.1711472 575 1318 584.8497344 1318 597 C 1318 609.1502656 1250.1711472 619 1166.5 619 C 1082.8288528 619 1015 609.1502656 1015 597 Z" opacity="0.2"/></g><g transform="translate(-222,-94) scale(1,1)"><path fill="#ffffff" stroke="none" d="M 1008 590 C 1008 577.8497344 1075.8288528 568 1159.5 568 C 1243.1711472 568 1311 577.8497344 1311 590 C 1311 602.1502656 1243.1711472 612 1159.5 612 C 1075.8288528 612 1008 602.1502656 1008 590 Z"/></g><g transform="translate(-222,-94) scale(1,1)"><path fill="none" stroke="#000000" d="M 1008 590 C 1008 577.8497344 1075.8288528 568 1159.5 568 C 1243.1711472 568 1311 577.8497344 1311 590 C 1311 602.1502656 1243.1711472 612 1159.5 612 C 1075.8288528 612 1008 602.1502656 1008 590 Z" stroke-miterlimit="10"/></g><g transform="translate(-222,-94) scale(1,1)"><g><path fill="none" stroke="none"/><text fill="#000000" stroke="none" font-family="Arial" font-size="20px" font-style="normal" font-weight="bold" text-decoration="none" x="1080.6181640625" y="598">Thanh toán COD</text></g></g><g transform="translate(-222,-94) scale(1,1)"><path fill="#C0C0C0" stroke="none" d="M 1111 1029 C 1111 1016.8497344 1160.4725296 1007 1221.5 1007 C 1282.5274704 1007 1332 1016.8497344 1332 1029 C 1332 1041.1502656 1282.5274704 1051 1221.5 1051 C 1160.4725296 1051 1111 1041.1502656 1111 1029 Z" opacity="0.2"/></g><g transform="translate(-222,-94) scale(1,1)"><path fill="#ffffff" stroke="none" d="M 1104 1022 C 1104 1009.8497344 1153.4725296 1000 1214.5 1000 C 1275.5274704 1000 1325 1009.8497344 1325 1022 C 1325 1034.1502656 1275.5274704 1044 1214.5 1044 C 1153.4725296 1044 1104 1034.1502656 1104 1022 Z"/></g><g transform="translate(-222,-94) scale(1,1)"><path fill="none" stroke="#000000" d="M 1104 1022 C 1104 1009.8497344 1153.4725296 1000 1214.5 1000 C 1275.5274704 1000 1325 1009.8497344 1325 1022 C 1325 1034.1502656 1275.5274704 1044 1214.5 1044 C 1153.4725296 1044 1104 1034.1502656 1104 1022 Z" stroke-miterlimit="10"/></g><g transform="translate(-222,-94) scale(1,1)"><g><path fill="none" stroke="none"/><text fill="#000000" stroke="none" font-family="Arial" font-size="20px" font-style="normal" font-weight="bold" text-decoration="none" x="1162.8349609375" y="1030">Hoàn hàng</text></g></g><g transform="translate(-222,-94) scale(1,1)"><path fill="#C0C0C0" stroke="none" d="M 1583 1237 C 1583 1224.8497344 1647.6948464 1215 1727.5 1215 C 1807.3051536 1215 1872 1224.8497344 1872 1237 C 1872 1249.1502656 1807.3051536 1259 1727.5 1259 C 1647.6948464 1259 1583 1249.1502656 1583 1237 Z" opacity="0.2"/></g><g transform="translate(-222,-94) scale(1,1)"><path fill="#ffffff" stroke="none" d="M 1576 1230 C 1576 1217.8497344 1640.6948464 1208 1720.5 1208 C 1800.3051536 1208 1865 1217.8497344 1865 1230 C 1865 1242.1502656 1800.3051536 1252 1720.5 1252 C 1640.6948464 1252 1576 1242.1502656 1576 1230 Z"/></g><g transform="translate(-222,-94) scale(1,1)"><path fill="none" stroke="#000000" d="M 1576 1230 C 1576 1217.8497344 1640.6948464 1208 1720.5 1208 C 1800.3051536 1208 1865 1217.8497344 1865 1230 C 1865 1242.1502656 1800.3051536 1252 1720.5 1252 C 1640.6948464 1252 1576 1242.1502656 1576 1230 Z" stroke-miterlimit="10"/></g><g transform="translate(-222,-94) scale(1,1)"><g><path fill="none" stroke="none"/><text fill="#000000" stroke="none" font-family="Arial" font-size="20px" font-style="normal" font-weight="bold" text-decoration="none" x="1622.7119140625" y="1238">Xác nhận hoàn hàng</text></g></g><g transform="translate(-222,-94) scale(1,1)"><path fill="none" stroke="#000000" d="M 2035 823 L 1856 1144 L 1756 1207" stroke-miterlimit="10"/></g><g transform="translate(-222,-94) scale(1,1)"><path fill="none" stroke="#000000" d="M 1512 510 L 1272 510 L 1272 228 L 588 228" stroke-miterlimit="10" stroke-dasharray="3"/></g><g transform="translate(-222,-94) scale(1,1)"><path fill="none" stroke="#000000" d="M 598.1626748576241 223.790482243984 L 588 228 L 598.1626748576241 232.209517756016" stroke-miterlimit="10"/></g><g transform="translate(-222,-94) scale(1,1)"><g><path fill="none" stroke="none"/><text fill="#000000" stroke="none" font-family="Arial" font-size="13px" font-style="normal" font-weight="normal" text-decoration="none" x="1214.5" y="373">«include»</text></g></g><g transform="translate(-222,-94) scale(1,1)"><path fill="none" stroke="#000000" d="M 1664 1207 L 1270 1045" stroke-miterlimit="10" stroke-dasharray="3"/></g><g transform="translate(-222,-94) scale(1,1)"><path fill="none" stroke="#000000" d="M 1280.999962740952 1044.9713696372744 L 1270 1045 L 1277.7983929705574 1052.7579035232955" stroke-miterlimit="10"/></g><g transform="translate(-222,-94) scale(1,1)"><g><path fill="none" stroke="none"/><text fill="#000000" stroke="none" font-family="Arial" font-size="13px" font-style="normal" font-weight="normal" text-decoration="none" x="1427.5" y="1158">«include»</text></g></g><g transform="translate(-222,-94) scale(1,1)"><path fill="#C0C0C0" stroke="none" d="M 1535 741 C 1535 728.8497344 1597.2324128 719 1674 719 C 1750.7675872 719 1813 728.8497344 1813 741 C 1813 753.1502656 1750.7675872 763 1674 763 C 1597.2324128 763 1535 753.1502656 1535 741 Z" opacity="0.2"/></g><g transform="translate(-222,-94) scale(1,1)"><path fill="#ffffff" stroke="none" d="M 1528 734 C 1528 721.8497344 1590.2324128 712 1667 712 C 1743.7675872 712 1806 721.8497344 1806 734 C 1806 746.1502656 1743.7675872 756 1667 756 C 1590.2324128 756 1528 746.1502656 1528 734 Z"/></g><g transform="translate(-222,-94) scale(1,1)"><path fill="none" stroke="#000000" d="M 1528 734 C 1528 721.8497344 1590.2324128 712 1667 712 C 1743.7675872 712 1806 721.8497344 1806 734 C 1806 746.1502656 1743.7675872 756 1667 756 C 1590.2324128 756 1528 746.1502656 1528 734 Z" stroke-miterlimit="10"/></g><g transform="translate(-222,-94) scale(1,1)"><g><path fill="none" stroke="none"/><text fill="#000000" stroke="none" font-family="Arial" font-size="20px" font-style="normal" font-weight="bold" text-decoration="none" x="1577" y="742.5">Quản lí phiếu nhập</text></g></g><g transform="translate(-222,-94) scale(1,1)"><path fill="none" stroke="#000000" d="M 2023 775 L 1807 750" stroke-miterlimit="10"/></g><g transform="translate(-222,-94) scale(1,1)"><path fill="#C0C0C0" stroke="none" d="M 1063 693 C 1063 680.8497344 1120.3075456 671 1191 671 C 1261.6924544 671 1319 680.8497344 1319 693 C 1319 705.1502656 1261.6924544 715 1191 715 C 1120.3075456 715 1063 705.1502656 1063 693 Z" opacity="0.2"/></g><g transform="translate(-222,-94) scale(1,1)"><path fill="#ffffff" stroke="none" d="M 1056 686 C 1056 673.8497344 1113.3075456 664 1184 664 C 1254.6924544 664 1312 673.8497344 1312 686 C 1312 698.1502656 1254.6924544 708 1184 708 C 1113.3075456 708 1056 698.1502656 1056 686 Z"/></g><g transform="translate(-222,-94) scale(1,1)"><path fill="none" stroke="#000000" d="M 1056 686 C 1056 673.8497344 1113.3075456 664 1184 664 C 1254.6924544 664 1312 673.8497344 1312 686 C 1312 698.1502656 1254.6924544 708 1184 708 C 1113.3075456 708 1056 698.1502656 1056 686 Z" stroke-miterlimit="10"/></g><g transform="translate(-222,-94) scale(1,1)"><g><path fill="none" stroke="none"/><text fill="#000000" stroke="none" font-family="Arial" font-size="20px" font-style="normal" font-weight="bold" text-decoration="none" x="1097.896484375" y="694">Thanh toán online</text></g></g><g transform="translate(-222,-94) scale(1,1)"><path fill="none" stroke="#000000" d="M 356 818 L 1117 999" stroke-miterlimit="10"/></g><g transform="translate(-222,-94) scale(1,1)"><path fill="none" stroke="#000000" d="M 356 804 L 1151 813" stroke-miterlimit="10"/></g><g transform="translate(-222,-94) scale(1,1)"><path fill="none" stroke="#000000" d="M 1073 613 L 959 644" stroke-miterlimit="10" stroke-dasharray="3"/></g><g transform="translate(-222,-94) scale(1,1)"><path fill="none" stroke="#000000" d="M 967.7019813640576 637.2712913319424 L 959 644 L 969.9111455600963 645.3953145044719" stroke-miterlimit="10"/></g><g transform="translate(-222,-94) scale(1,1)"><g><path fill="none" stroke="none"/><text fill="#000000" stroke="none" font-family="Arial" font-size="13px" font-style="normal" font-weight="normal" text-decoration="none" x="997.5" y="661">«extend»</text></g></g><g transform="translate(-222,-94) scale(1,1)"><path fill="none" stroke="#000000" d="M 1055 675 L 959 668" stroke-miterlimit="10" stroke-dasharray="3"/></g><g transform="translate(-222,-94) scale(1,1)"><path fill="none" stroke="#000000" d="M 969.4418967118696 664.5406947144481 L 959 668 L 968.8296341990207 672.9374377478043" stroke-miterlimit="10"/></g><g transform="translate(-222,-94) scale(1,1)"><g><path fill="none" stroke="none"/><text fill="#000000" stroke="none" font-family="Arial" font-size="13px" font-style="normal" font-weight="normal" text-decoration="none" x="978.5" y="705">«extend»</text></g></g><g transform="translate(-222,-94) scale(1,1)"><path fill="none" stroke="#000000" d="M 1218 837 L 1138 887" stroke-miterlimit="10" stroke-dasharray="3"/></g><g transform="translate(-222,-94) scale(1,1)"><path fill="none" stroke="#000000" d="M 1144.3868910948074 878.0441291800814 L 1138 887 L 1148.8489709920334 885.1834570156431" stroke-miterlimit="10"/></g><g transform="translate(-222,-94) scale(1,1)"><g><path fill="none" stroke="none"/><text fill="#000000" stroke="none" font-family="Arial" font-size="13px" font-style="normal" font-weight="normal" text-decoration="none" x="1166.5" y="892">«extend»</text></g></g><g transform="translate(-222,-94) scale(1,1)"><path fill="none" stroke="#000000" d="M 1191 999 L 1125 933" stroke-miterlimit="10" stroke-dasharray="3"/></g><g transform="translate(-222,-94) scale(1,1)"><path fill="none" stroke="#000000" d="M 1135.162674857624 937.209517756016 L 1125 933 L 1129.2095177560159 943.1626748576241" stroke-miterlimit="10"/></g><g transform="translate(-222,-94) scale(1,1)"><g><path fill="none" stroke="none"/><text fill="#000000" stroke="none" font-family="Arial" font-size="13px" font-style="normal" font-weight="normal" text-decoration="none" x="1109.5" y="992">«extend»</text></g></g><g transform="translate(-222,-94) scale(1,1)"><path fill="none" stroke="#000000" d="M 356 834 L 1246 1271" stroke-miterlimit="10"/></g><g transform="translate(-222,-94) scale(1,1)"><path fill="none" stroke="#000000" d="M 355 847 L 985 1295" stroke-miterlimit="10"/></g><g transform="translate(-222,-94) scale(1,1)"><path fill="none" stroke="#000000" d="M 330 847 L 760 1359" stroke-miterlimit="10"/></g><g transform="translate(-222,-94) scale(1,1)"><path fill="none" stroke="#000000" d="M 316 847 L 669 1519" stroke-miterlimit="10"/></g></g></svg>